<svg id="Layer_1" data-name="Layer 1" xmlns="http://www.w3.org/2000/svg" xmlns:xlink="http://www.w3.org/1999/xlink" viewBox="0 0 555.57 331.43"><defs><style>.cls-1,.cls-12,.cls-7{fill:none;}.cls-2{clip-path:url(#clip-path);}.cls-16,.cls-3{font-size:8.93px;}.cls-3{fill:gray;}.cls-10,.cls-13,.cls-14,.cls-16,.cls-3,.cls-4,.cls-5,.cls-6,.cls-8{font-family:Times New Roman;}.cls-4,.cls-5,.cls-6{font-size:12.99px;}.cls-4,.cls-8{fill:#48a2da;}.cls-13,.cls-5{fill:#80c343;}.cls-6{fill:#1e1b19;}.cls-7{stroke:#48a2da;}.cls-12,.cls-7{stroke-linejoin:round;}.cls-13,.cls-8{font-size:11.37px;}.cls-9{letter-spacing:-0.93px;}.cls-10{font-size:9.74px;}.cls-10,.cls-14,.cls-16{fill:#010101;}.cls-11{white-space:pre;}.cls-12{stroke:#80c343;}.cls-14{font-size:8.12px;}.cls-15{letter-spacing:0.93px;}</style><clipPath id="clip-path" transform="translate(-36.27 -189.77)"><rect class="cls-1" x="24.32" y="181.89" width="567.45" height="344.27"/></clipPath></defs><title>Qt</title><g class="cls-2"><text class="cls-3" transform="translate(0 328.69) scale(1.07 1)">1<tspan x="4.87" y="0">2</tspan></text><text x="-36.27" y="-189.77"/><text x="-36.27" y="-189.77"/><text class="cls-4" transform="translate(21.55 115.33) scale(1.07 1)">GU<tspan x="19.47" y="0">I</tspan></text><text class="cls-5" transform="translate(19.18 223.04) scale(1.07 1)">non</text><text class="cls-5" transform="translate(40.07 223.04) scale(1.07 1)">-</text><text class="cls-5" transform="translate(44.42 223.04) scale(1.07 1)">GU<tspan x="19.47" y="0">I</tspan></text><text class="cls-6" transform="translate(180.71 47.95) scale(1.07 1)">E<tspan x="8.12" y="0">ss</tspan><tspan x="17.87" y="0">e</tspan><tspan x="23.55" y="0">n</tspan><tspan x="30.05" y="0">ti</tspan><tspan x="36.57" y="0">a</tspan><tspan x="42.25" y="0">l</tspan><tspan x="45.51" y="0">s</tspan></text><text class="cls-6" transform="translate(442.81 67.38) scale(1.07 1)">A<tspan x="9.73" y="0">dd</tspan></text><text class="cls-6" transform="translate(467.18 67.38) scale(1.07 1)">-</text><text class="cls-6" transform="translate(471.54 67.38) scale(1.07 1)">ons</text><rect class="cls-7" x="86.83" y="58.29" width="68.76" height="91.75"/><text class="cls-8" transform="translate(92.46 72.36) scale(1.07 1)"><tspan class="cls-9">W</tspan><tspan x="9.75" y="0">i</tspan><tspan x="12.99" y="0">dg</tspan><tspan x="24.36" y="0">e</tspan><tspan x="29.23" y="0">t</tspan><tspan x="32.47" y="0">s</tspan></text><text class="cls-10" transform="translate(92.46 95.91) scale(1.07 1)">C</text><text class="cls-10" transform="translate(99.43 95.91) scale(1.07 1)">+<tspan x="5.68" y="0">+</tspan></text><text class="cls-10" transform="translate(92.46 107.27) scale(1.07 1)">N<tspan x="7.3" y="0">ati</tspan><tspan x="16.25" y="0">v</tspan><tspan x="21.12" y="0">e</tspan><tspan x="25.18" y="0"> </tspan><tspan x="28.43" y="0">L</tspan><tspan x="34.12" y="0">A</tspan><tspan x="41.42" y="0">F</tspan></text><text class="cls-10" transform="translate(92.46 119.45) scale(1.07 1)">La<tspan x="9.75" y="0">you</tspan><tspan x="24.37" y="0">t</tspan><tspan x="26.81" y="0">s</tspan></text><text class="cls-10" transform="translate(92.46 130.82) scale(1.07 1)">S<tspan x="5.68" y="0">t</tspan><tspan x="8.13" y="0">y</tspan><tspan x="13" y="0">le</tspan><tspan x="19.5" y="0">s</tspan></text><text class="cls-10" transform="translate(92.46 142.19) scale(1.07 1)">O<tspan x="7.3" y="0">p</tspan><tspan x="12.17" y="0">e</tspan><tspan x="16.23" y="0">n</tspan><tspan x="21.1" y="0">G</tspan><tspan x="28.4" y="0">L</tspan></text><rect class="cls-7" x="160.81" y="58.29" width="87.9" height="91.75"/><text class="cls-8" transform="translate(166.86 72.36) scale(1.07 1)">Q<tspan x="8.13" y="0">t</tspan><tspan x="11.37" y="0"> </tspan><tspan x="14.61" y="0">Q</tspan><tspan x="22.74" y="0">u</tspan><tspan x="28.42" y="0">i</tspan><tspan x="31.66" y="0">c</tspan><tspan x="36.53" y="0">k</tspan></text><text class="cls-10" transform="translate(166.86 95.91) scale(1.07 1)">QM<tspan x="16.23" y="0">L</tspan></text><text class="cls-10" transform="translate(166.86 107.27) scale(1.07 1)">Con<tspan x="16.24" y="0">t</tspan><tspan x="18.69" y="0">ro</tspan><tspan x="26.8" y="0">l</tspan><tspan x="29.25" y="0">s</tspan></text><text class="cls-10" transform="translate(166.86 119.45) scale(1.07 1)">La<tspan x="9.75" y="0">you</tspan><tspan x="24.37" y="0">t</tspan><tspan x="26.81" y="0">s</tspan></text><text class="cls-10" transform="translate(166.86 130.82) scale(1.07 1)">S<tspan x="5.68" y="0">t</tspan><tspan x="8.13" y="0">y</tspan><tspan x="13" y="0">le</tspan><tspan x="19.5" y="0">s</tspan></text><text class="cls-10" transform="translate(166.86 142.19) scale(1.07 1)">O<tspan x="7.3" y="0">p</tspan><tspan x="12.17" y="0">e</tspan><tspan x="16.23" y="0">n</tspan><tspan x="21.1" y="0">G</tspan><tspan x="28.4" y="0">L</tspan></text><rect class="cls-7" x="253.93" y="58.29" width="87.03" height="91.75"/><text class="cls-8" transform="translate(259.62 72.36) scale(1.07 1)"><tspan class="cls-9">W</tspan><tspan x="9.75" y="0">e</tspan><tspan x="14.63" y="0">b</tspan><tspan x="20.31" y="0">E</tspan><tspan x="27.62" y="0">ng</tspan><tspan x="38.99" y="0">i</tspan><tspan x="42.22" y="0">ne</tspan></text><text class="cls-8" transform="translate(259.62 85.35) scale(1.07 1)">+<tspan x="6.49" y="0"> </tspan><tspan class="cls-9" x="8.93" y="0">W</tspan><tspan x="18.69" y="0">e</tspan><tspan x="23.56" y="0">b</tspan><tspan x="29.25" y="0">V</tspan><tspan x="36.56" y="0">i</tspan><tspan x="39.79" y="0">e</tspan><tspan x="44.67" y="0">w</tspan></text><text class="cls-10" transform="translate(259.62 109.71) scale(1.07 1)">H<tspan x="7.3" y="0">T</tspan><tspan x="12.99" y="0">M</tspan><tspan x="21.91" y="0">L</tspan><tspan class="cls-11" x="27.6" y="0"> 5</tspan></text><text class="cls-10" transform="translate(259.62 121.08) scale(1.07 1)">H<tspan x="7.3" y="0">ybr</tspan><tspan x="20.29" y="0">i</tspan><tspan x="22.73" y="0">d </tspan><tspan x="30.04" y="0">U</tspan><tspan x="37.34" y="0">Is</tspan></text><rect class="cls-7" x="381" y="107.82" width="82.68" height="18.68"/><text class="cls-10" transform="translate(387.13 120.03) scale(1.07 1)">S<tspan x="5.68" y="0">V</tspan><tspan x="12.99" y="0">G</tspan></text><rect class="cls-7" x="381" y="131.37" width="82.68" height="18.68"/><text class="cls-10" transform="translate(386.91 143.29) scale(1.07 1)">C<tspan x="6.5" y="0">a</tspan><tspan x="10.56" y="0">nv</tspan><tspan x="20.3" y="0">a</tspan><tspan x="24.37" y="0">s</tspan><tspan class="cls-11" x="28.42" y="0"> 3D</tspan></text><rect class="cls-12" x="381" y="154.1" width="82.68" height="18.68"/><text class="cls-10" transform="translate(386.53 164.99) scale(1.07 1)">S<tspan x="5.68" y="0">e</tspan><tspan x="9.74" y="0">r</tspan><tspan x="12.99" y="0">ial</tspan><tspan x="21.94" y="0"> </tspan><tspan x="25.18" y="0">P</tspan><tspan x="30.86" y="0">ort</tspan></text><rect class="cls-12" x="86.83" y="154.92" width="68.76" height="146.97"/><text class="cls-13" transform="translate(92.46 168.97) scale(1.07 1)">C<tspan x="7.31" y="0">o</tspan><tspan x="12.99" y="0">r</tspan><tspan x="17.05" y="0">e</tspan></text><text class="cls-10" transform="translate(92.46 192.52) scale(1.07 1)">P<tspan x="5.68" y="0">ro</tspan><tspan x="13.8" y="0">ce</tspan><tspan x="21.92" y="0">ss</tspan><tspan x="30.03" y="0">e</tspan><tspan x="34.09" y="0">s</tspan></text><text class="cls-10" transform="translate(92.46 203.88) scale(1.07 1)">T<tspan x="5.69" y="0">hr</tspan><tspan x="13.81" y="0">ea</tspan><tspan x="21.93" y="0">ds</tspan></text><text class="cls-10" transform="translate(92.46 216.06) scale(1.07 1)">I<tspan x="3.24" y="0">P</tspan><tspan x="8.93" y="0">C</tspan></text><text class="cls-10" transform="translate(92.46 227.43) scale(1.07 1)">Con<tspan x="16.24" y="0">tai</tspan><tspan x="25.19" y="0">n</tspan><tspan x="30.06" y="0">e</tspan><tspan x="34.13" y="0">rs</tspan></text><text class="cls-10" transform="translate(92.46 238.8) scale(1.07 1)">I/</text><text class="cls-10" transform="translate(98.56 238.8) scale(1.07 1)">O</text><text class="cls-10" transform="translate(92.46 250.98) scale(1.07 1)">S<tspan x="5.68" y="0">t</tspan><tspan x="8.13" y="0">r</tspan><tspan x="11.37" y="0">i</tspan><tspan x="13.81" y="0">ngs</tspan></text><text class="cls-10" transform="translate(92.46 262.34) scale(1.07 1)">Et<tspan x="8.13" y="0">c</tspan></text><text class="cls-10" transform="translate(105.52 262.34) scale(1.07 1)">.</text><rect class="cls-12" x="160.81" y="154.92" width="87.03" height="80.38"/><text class="cls-13" transform="translate(166.86 168.95) scale(1.07 1)">M<tspan x="9.74" y="0">u</tspan><tspan x="15.43" y="0">ltim</tspan><tspan x="34.06" y="0">e</tspan><tspan x="38.94" y="0">d</tspan><tspan x="44.62" y="0">i</tspan><tspan x="47.86" y="0">a</tspan></text><text class="cls-10" transform="translate(166.86 192.49) scale(1.07 1)">A<tspan x="7.3" y="0">ud</tspan><tspan x="17.04" y="0">i</tspan><tspan x="19.49" y="0">o</tspan></text><text class="cls-10" transform="translate(166.86 203.86) scale(1.07 1)">V<tspan x="6.5" y="0">i</tspan><tspan x="8.94" y="0">d</tspan><tspan x="13.82" y="0">e</tspan><tspan x="17.88" y="0">o</tspan></text><text class="cls-10" transform="translate(166.86 216.04) scale(1.07 1)">R<tspan x="6.5" y="0">a</tspan><tspan x="10.56" y="0">d</tspan><tspan x="15.43" y="0">i</tspan><tspan x="17.88" y="0">o</tspan></text><text class="cls-10" transform="translate(166.86 227.41) scale(1.07 1)">C<tspan x="6.5" y="0">a</tspan><tspan x="10.56" y="0">m</tspan><tspan x="17.87" y="0">e</tspan><tspan x="21.93" y="0">ra</tspan></text><rect class="cls-12" x="160.81" y="240.98" width="87.9" height="60.9"/><text class="cls-13" transform="translate(166.86 254.79) scale(1.07 1)">S<tspan x="6.49" y="0">ql</tspan></text><text class="cls-10" transform="translate(166.86 278.33) scale(1.07 1)">SQ<tspan x="12.98" y="0">L</tspan><tspan x="18.67" y="0"> </tspan><tspan x="20.3" y="0">a</tspan><tspan x="24.36" y="0">nd</tspan><tspan x="34.1" y="0"> </tspan><tspan x="37.35" y="0">O</tspan><tspan x="44.65" y="0">r</tspan><tspan x="47.89" y="0">acle</tspan><tspan x="62.52" y="0"> </tspan></text><text class="cls-10" transform="translate(166.86 289.7) scale(1.07 1)">d<tspan x="4.87" y="0">ata</tspan><tspan x="15.44" y="0">b</tspan><tspan x="20.31" y="0">a</tspan><tspan x="24.37" y="0">s</tspan><tspan x="28.43" y="0">e</tspan><tspan x="32.49" y="0">s</tspan></text><rect class="cls-12" x="253.93" y="154.92" width="87.03" height="80.38"/><text class="cls-13" transform="translate(259.62 169.08) scale(1.07 1)">N<tspan x="8.13" y="0">e</tspan><tspan x="13" y="0">t</tspan><tspan x="16.24" y="0">w</tspan><tspan x="24.37" y="0">o</tspan><tspan x="30.06" y="0">r</tspan><tspan x="34.11" y="0">k</tspan></text><text class="cls-10" transform="translate(259.62 192.63) scale(1.07 1)">H<tspan x="7.3" y="0">TT</tspan><tspan x="18.68" y="0">P</tspan></text><text class="cls-10" transform="translate(259.62 204) scale(1.07 1)">F<tspan x="5.68" y="0">T</tspan><tspan x="11.37" y="0">P</tspan></text><text class="cls-10" transform="translate(259.62 216.18) scale(1.07 1)">T<tspan x="5.69" y="0">C</tspan><tspan x="12.19" y="0">P</tspan><tspan x="17.87" y="0">/</tspan><tspan x="20.31" y="0">UD</tspan><tspan x="34.93" y="0">P</tspan></text><text class="cls-10" transform="translate(259.62 227.55) scale(1.07 1)">SS<tspan x="11.36" y="0">L</tspan></text><rect class="cls-12" x="253.93" y="240.98" width="87.03" height="60.9"/><text class="cls-13" transform="translate(259.62 254.75) scale(1.07 1)">Q<tspan x="8.13" y="0">t</tspan><tspan x="11.37" y="0"> </tspan></text><text class="cls-13" transform="translate(274.41 254.75) scale(1.07 1)">T<tspan x="6.5" y="0">e</tspan><tspan x="11.38" y="0">s</tspan><tspan x="15.45" y="0">t</tspan></text><rect class="cls-12" x="468.03" y="154.1" width="87.03" height="19.49"/><text class="cls-10" transform="translate(473.95 165.1) scale(1.07 1)">B<tspan x="6.5" y="0">l</tspan><tspan x="8.94" y="0">u</tspan><tspan x="13.81" y="0">et</tspan><tspan x="20.32" y="0">oo</tspan><tspan x="30.06" y="0">t</tspan><tspan x="32.51" y="0">h</tspan></text><rect class="cls-12" x="381" y="179.27" width="82.68" height="19.49"/><text class="cls-10" transform="translate(386.53 190.48) scale(1.07 1)">P<tspan x="5.68" y="0">o</tspan><tspan x="10.55" y="0">s</tspan><tspan x="14.61" y="0">iti</tspan><tspan x="21.94" y="0">on</tspan><tspan x="31.68" y="0">i</tspan><tspan x="34.13" y="0">ng</tspan></text><rect class="cls-12" x="468.03" y="179.27" width="87.03" height="19.49"/><text class="cls-10" transform="translate(473.95 190.25) scale(1.07 1)">Con<tspan x="16.24" y="0">c</tspan><tspan x="20.3" y="0">urr</tspan><tspan x="31.67" y="0">e</tspan><tspan x="35.73" y="0">n</tspan><tspan x="40.6" y="0">c</tspan><tspan x="44.66" y="0">y</tspan></text><rect class="cls-12" x="381" y="205.26" width="82.68" height="18.68"/><text class="cls-10" transform="translate(386.53 215.89) scale(1.07 1)">P<tspan x="5.68" y="0">r</tspan><tspan x="8.93" y="0">i</tspan><tspan x="11.37" y="0">n</tspan><tspan x="16.24" y="0">ti</tspan><tspan x="21.13" y="0">ng</tspan></text><rect class="cls-12" x="468.03" y="204.45" width="87.03" height="19.49"/><text class="cls-10" transform="translate(473.95 215.66) scale(1.07 1)">S<tspan x="5.68" y="0">c</tspan><tspan x="9.74" y="0">r</tspan><tspan x="12.99" y="0">i</tspan><tspan x="15.43" y="0">p</tspan><tspan x="20.3" y="0">ti</tspan><tspan x="25.19" y="0">ng</tspan></text><rect class="cls-12" x="381" y="230.43" width="82.68" height="18.68"/><text class="cls-10" transform="translate(386.53 241.29) scale(1.07 1)">N<tspan x="7.3" y="0">F</tspan><tspan x="12.97" y="0">C</tspan></text><rect class="cls-12" x="468.03" y="230.43" width="87.03" height="18.68"/><text class="cls-10" transform="translate(473.95 241.07) scale(1.07 1)">P<tspan x="5.68" y="0">lat</tspan><tspan x="14.63" y="0">for</tspan><tspan x="25.99" y="0">m</tspan><tspan x="33.31" y="0"> </tspan><tspan x="36.55" y="0">E</tspan><tspan x="42.24" y="0">x</tspan><tspan x="47.11" y="0">t</tspan><tspan x="49.56" y="0">r</tspan><tspan x="52.8" y="0">a</tspan><tspan x="56.86" y="0">s</tspan></text><rect class="cls-12" x="381" y="255.6" width="82.68" height="19.49"/><text class="cls-10" transform="translate(386.53 266.7) scale(1.07 1)">XM<tspan x="16.23" y="0">L</tspan></text><rect class="cls-12" x="468.03" y="255.6" width="87.03" height="18.68"/><text class="cls-10" transform="translate(473.95 266.48) scale(1.07 1)">S<tspan x="5.68" y="0">e</tspan><tspan x="9.74" y="0">n</tspan><tspan x="14.62" y="0">s</tspan><tspan x="18.67" y="0">ors</tspan></text><rect class="cls-12" x="381" y="280.77" width="82.68" height="19.49"/><text class="cls-10" transform="translate(386.31 291.91) scale(1.07 1)">I<tspan x="3.24" y="0">ma</tspan><tspan x="14.62" y="0">g</tspan><tspan x="19.49" y="0">e</tspan><tspan x="23.55" y="0"> </tspan></text><text class="cls-10" transform="translate(415.04 291.91) scale(1.07 1)">for<tspan x="11.36" y="0">mat</tspan><tspan x="25.18" y="0">s</tspan></text><rect class="cls-7" x="381" y="85.09" width="83.55" height="19.49"/><text class="cls-10" transform="translate(386.7 97.45) scale(1.07 1)">Ch<tspan x="11.37" y="0">a</tspan><tspan x="15.43" y="0">r</tspan><tspan x="18.68" y="0">t</tspan><tspan x="21.12" y="0">s</tspan></text><rect class="cls-12" x="468.03" y="280.77" width="87.03" height="17.86"/><text class="cls-14" transform="translate(473.95 291.91) scale(1.07 1)">I<tspan x="2.44" y="0">n</tspan></text><text class="cls-14" transform="translate(480.91 291.91) scale(1.07 1)">-</text><text class="cls-14" transform="translate(483.52 291.91) scale(1.07 1)">A<tspan x="5.69" y="0">pp</tspan><tspan class="cls-15" x="13.8" y="0"> </tspan><tspan x="17.05" y="0">P</tspan><tspan x="21.92" y="0">u</tspan><tspan x="25.98" y="0">r</tspan><tspan x="28.41" y="0">c</tspan><tspan x="31.67" y="0">h</tspan><tspan x="35.73" y="0">a</tspan><tspan x="38.98" y="0">s</tspan><tspan x="42.22" y="0">i</tspan><tspan x="44.66" y="0">ng</tspan></text><rect class="cls-7" x="468.03" y="107.82" width="87.03" height="18.68"/><text class="cls-16" transform="translate(473.95 118.36) scale(1.07 1)">D<tspan x="6.5" y="0">a</tspan><tspan x="10.55" y="0">t</tspan><tspan x="12.99" y="0">a</tspan><tspan x="17.04" y="0"> </tspan><tspan x="18.66" y="0">V</tspan><tspan x="25.16" y="0">i</tspan><tspan x="27.6" y="0">s</tspan><tspan x="30.85" y="0">u</tspan><tspan x="35.72" y="0">a</tspan><tspan x="39.77" y="0">li</tspan><tspan x="44.64" y="0">za</tspan><tspan x="52.75" y="0">ti</tspan><tspan x="57.62" y="0">o</tspan><tspan x="61.69" y="0">n</tspan></text><rect class="cls-7" x="468.9" y="131.37" width="86.16" height="18.68"/><text class="cls-16" transform="translate(474.33 142.48) scale(1.07 1)">V<tspan x="6.5" y="0">i</tspan><tspan x="8.93" y="0">r</tspan><tspan x="12.17" y="0">t</tspan><tspan x="14.61" y="0">u</tspan><tspan x="19.48" y="0">a</tspan><tspan x="23.53" y="0">l</tspan><tspan x="25.97" y="0"> </tspan><tspan x="27.59" y="0">K</tspan><tspan x="34.09" y="0">e</tspan><tspan x="38.14" y="0">ybo</tspan><tspan x="52.75" y="0">a</tspan><tspan x="56.8" y="0">r</tspan><tspan x="60.04" y="0">d</tspan></text></g></svg>