<svg id="Layer_1" data-name="Layer 1" xmlns="http://www.w3.org/2000/svg" xmlns:xlink="http://www.w3.org/1999/xlink" viewBox="0 0 655 196"><defs><style>.cls-1,.cls-10,.cls-9{fill:none;}.cls-2{clip-path:url(#clip-path);}.cls-14,.cls-3,.cls-7{fill:#fff;}.cls-3{opacity:0;}.cls-4{clip-path:url(#clip-path-2);}.cls-5{fill:#84bb41;}.cls-11,.cls-13,.cls-6{fill:#80c343;}.cls-8{fill:#0d6333;}.cls-10,.cls-9{stroke:#80c343;stroke-miterlimit:10;stroke-width:1.07px;}.cls-9{stroke-linecap:round;}.cls-11{fill-rule:evenodd;}.cls-12,.cls-13{font-size:12px;}.cls-12{fill:#010101;}.cls-12,.cls-13,.cls-14{font-family:Times New Roman;}.cls-14{font-size:10px;}</style><clipPath id="clip-path" transform="translate(-61.98 -371.84)"><rect class="cls-1" x="61.98" y="371.84" width="655" height="196"/></clipPath><clipPath id="clip-path-2" transform="translate(-61.98 -371.84)"><rect class="cls-1" x="166.98" y="371.84" width="456" height="196"/></clipPath></defs><title>Qt2</title><g class="cls-2"><rect class="cls-3" width="655" height="196"/></g><g class="cls-4"><path class="cls-5" d="M394.92,471.91h0" transform="translate(-61.98 -371.84)"/><path class="cls-6" d="M376.17,416.41c-5.22-.86-9.63,3-9.63,8.59v61.63l47.82-8c3.3-.57,5.82-4.45,5.82-8.64V423.62Z" transform="translate(-61.98 -371.84)"/><path class="cls-7" d="M411.21,461.91a1.34,1.34,0,0,1-1.18-.53,5.05,5.05,0,0,1-.39-2.61V443.23l4,0.2v-4.25l-4-.31V432.1l-3.93-.42-1.6,6.81-2.55-.18v4.56l1.8,0.09v17.22a7.25,7.25,0,0,0,1.49,4.92,4.5,4.5,0,0,0,3.5,1.32l0.7,0a16.5,16.5,0,0,0,5.08-1.35v-3.91a7.27,7.27,0,0,1-2.78.77h-0.14" transform="translate(-61.98 -371.84)"/><path class="cls-8" d="M394.92,471.91a5.28,5.28,0,0,0,.6,0c0.27,0,.56-0.06.87-0.06h-1.47" transform="translate(-61.98 -371.84)"/><path class="cls-7" d="M388.93,429.39a14.7,14.7,0,0,0-1.69-.1,9.4,9.4,0,0,0-8.07,4c-2.3,3.21-3.47,8.26-3.47,15.11,0,6.35.86,11.21,2.54,14.53a10.26,10.26,0,0,0,7.12,5.87q1,4.85,3.12,6.55a6.59,6.59,0,0,0,4.24,1.28,13.21,13.21,0,0,0,1.68-.12l2-.26v-4.4a6.35,6.35,0,0,1-.85,0h0a5.81,5.81,0,0,1-.61,0H394.8a2.54,2.54,0,0,1-1.37-.55,5.5,5.5,0,0,1-1.32-3,10.64,10.64,0,0,0,6.38-6.37c1.36-3.21,2-7.56,2-13.08,0-6-.91-10.63-2.77-13.84a11,11,0,0,0-8.82-5.63m3.52,31.29q-1.19,3.07-3.52,3.22h-0.21c-1.55,0-2.74-1.11-3.53-3.35s-1.26-6.35-1.26-12q0-8.75,1.27-11.55,1.17-2.56,3.36-2.56l0.36,0c1.57,0.14,2.75,1.23,3.53,3.25s1.17,5.68,1.17,11q0,8.9-1.18,11.94" transform="translate(-61.98 -371.84)"/><path class="cls-6" d="M471.69,372.91a3.22,3.22,0,0,1,3.22,3.21V563.55a3.22,3.22,0,0,1-3.22,3.21H318.26a3.22,3.22,0,0,1-3.22-3.21V376.12a3.22,3.22,0,0,1,3.22-3.21H471.69m0-1.07H318.26a4.3,4.3,0,0,0-4.29,4.28V563.55a4.3,4.3,0,0,0,4.29,4.28H471.69a4.3,4.3,0,0,0,4.29-4.28V376.12a4.3,4.3,0,0,0-4.29-4.28" transform="translate(-61.98 -371.84)"/><path class="cls-6" d="M462.57,377.19a7.5,7.5,0,1,1-7.51,7.5,7.51,7.51,0,0,1,7.51-7.5m0-1.07a8.57,8.57,0,1,0,8.58,8.57,8.58,8.58,0,0,0-8.58-8.57" transform="translate(-61.98 -371.84)"/><line class="cls-9" x1="396.84" y1="9.1" x2="404.35" y2="16.6"/><line class="cls-9" x1="404.35" y1="9.1" x2="396.84" y2="16.6"/><line class="cls-9" x1="419.37" y1="59.44" x2="455.32" y2="59.44"/><polyline class="cls-9" points="444.59 48.73 455.31 59.44 444.59 70.15"/><line class="cls-9" x1="419.37" y1="135.49" x2="455.32" y2="135.49"/><polyline class="cls-9" points="444.59 124.78 455.31 135.49 444.59 146.2"/><line class="cls-10" x1="252.53" y1="24.63" x2="413.47" y2="24.63"/><path class="cls-7" d="M527.48,449.49a3.76,3.76,0,0,1-3.76-3.75V387.9a3.76,3.76,0,0,1,3.76-3.75h91.2a3.76,3.76,0,0,1,3.76,3.75v57.84a3.76,3.76,0,0,1-3.76,3.75h-91.2Z" transform="translate(-61.98 -371.84)"/><path class="cls-6" d="M618.68,384.69a3.22,3.22,0,0,1,3.22,3.21v57.84a3.22,3.22,0,0,1-3.22,3.21h-91.2a3.22,3.22,0,0,1-3.22-3.21V387.9a3.22,3.22,0,0,1,3.22-3.21h91.2m0-1.07h-91.2a4.3,4.3,0,0,0-4.29,4.28v57.84a4.3,4.3,0,0,0,4.29,4.28h91.2a4.3,4.3,0,0,0,4.29-4.28V387.9a4.3,4.3,0,0,0-4.29-4.28" transform="translate(-61.98 -371.84)"/><path class="cls-7" d="M468.73,17.4h84.77a1.87,1.87,0,0,1,1.87,1.87V70.69a1.88,1.88,0,0,1-1.88,1.88H468.72a1.87,1.87,0,0,1-1.87-1.87V19.28A1.88,1.88,0,0,1,468.73,17.4Z"/><path class="cls-6" d="M615.47,389.51a1.61,1.61,0,0,1,1.61,1.61v51.41a1.61,1.61,0,0,1-1.61,1.61H530.7a1.61,1.61,0,0,1-1.61-1.61V391.12a1.61,1.61,0,0,1,1.61-1.61h84.76m0-.54H530.7a2.15,2.15,0,0,0-2.15,2.14v51.41a2.15,2.15,0,0,0,2.15,2.14h84.76a2.15,2.15,0,0,0,2.15-2.14V391.12a2.15,2.15,0,0,0-2.15-2.14" transform="translate(-61.98 -371.84)"/><path class="cls-7" d="M527.48,555.52a3.76,3.76,0,0,1-3.76-3.75V493.94a3.76,3.76,0,0,1,3.76-3.75h91.2a3.76,3.76,0,0,1,3.76,3.75v57.84a3.76,3.76,0,0,1-3.76,3.75h-91.2Z" transform="translate(-61.98 -371.84)"/><path class="cls-6" d="M618.68,490.72a3.22,3.22,0,0,1,3.22,3.21v57.84a3.22,3.22,0,0,1-3.22,3.21h-91.2a3.22,3.22,0,0,1-3.22-3.21V493.94a3.22,3.22,0,0,1,3.22-3.21h91.2m0-1.07h-91.2a4.3,4.3,0,0,0-4.29,4.28v57.84a4.3,4.3,0,0,0,4.29,4.28h91.2a4.3,4.3,0,0,0,4.29-4.28V493.94a4.3,4.3,0,0,0-4.29-4.28" transform="translate(-61.98 -371.84)"/><path class="cls-7" d="M468.73,123.44h84.77a1.87,1.87,0,0,1,1.87,1.87v51.41a1.87,1.87,0,0,1-1.87,1.87H468.72a1.87,1.87,0,0,1-1.87-1.87V125.31A1.88,1.88,0,0,1,468.73,123.44Z"/><path class="cls-6" d="M615.47,495.54a1.61,1.61,0,0,1,1.61,1.61v51.41a1.61,1.61,0,0,1-1.61,1.61H530.7a1.61,1.61,0,0,1-1.61-1.61V497.15a1.61,1.61,0,0,1,1.61-1.61h84.76m0-.54H530.7a2.15,2.15,0,0,0-2.15,2.14v51.41a2.15,2.15,0,0,0,2.15,2.14h84.76a2.15,2.15,0,0,0,2.15-2.14V497.15a2.15,2.15,0,0,0-2.15-2.14" transform="translate(-61.98 -371.84)"/><path class="cls-6" d="M587.57,416.82a14.48,14.48,0,1,1-14.48-14.46,14.47,14.47,0,0,1,14.48,14.46" transform="translate(-61.98 -371.84)"/><polygon class="cls-7" points="511.08 46.15 507.04 52.28 505.56 52.28 510.35 45.15 505.75 38.4 507.27 38.4 511.08 44.24 514.9 38.4 516.43 38.4 511.87 45.15 516.64 52.28 515.13 52.28 511.08 46.15"/><path class="cls-6" d="M560.72,516.8a2.12,2.12,0,0,0-2.12,2.12v8.86a2.12,2.12,0,0,0,4.24,0v-8.86a2.12,2.12,0,0,0-2.12-2.11m17.09-8,1.48-2.7a0.29,0.29,0,1,0-.51-0.28l-1.49,2.72a10.34,10.34,0,0,0-8.29,0l-1.5-2.72a0.29,0.29,0,0,0-.4-0.12,0.29,0.29,0,0,0-.12.4l1.48,2.69a8.64,8.64,0,0,0-4.87,7.62h19.09a8.64,8.64,0,0,0-4.86-7.62m-9,4.17a0.8,0.8,0,1,1,.8-0.8,0.8,0.8,0,0,1-.8.8m8.69,0a0.8,0.8,0,1,1,.8-0.8,0.8,0.8,0,0,1-.8.8m-13.82,4.19v13.73a2.26,2.26,0,0,0,2.26,2.26h1.54v4.69a2.12,2.12,0,0,0,4.24,0v-4.69h2.86v4.69a2.12,2.12,0,0,0,4.24,0v-4.69h1.55a2.26,2.26,0,0,0,2.26-2.26V517.2H563.66Zm24,1.71a2.12,2.12,0,0,0-4.24,0v8.86a2.12,2.12,0,0,0,4.24,0v-8.86Z" transform="translate(-61.98 -371.84)"/><line class="cls-9" x1="246.63" y1="59.44" x2="210.68" y2="59.44"/><polyline class="cls-9" points="221.41 48.73 210.69 59.44 221.41 70.15"/><line class="cls-9" x1="246.63" y1="135.49" x2="210.68" y2="135.49"/><polyline class="cls-9" points="221.41 124.78 210.69 135.49 221.41 146.2"/><path class="cls-7" d="M171.27,449.49a3.76,3.76,0,0,1-3.76-3.75V387.9a3.76,3.76,0,0,1,3.76-3.75h91.2a3.76,3.76,0,0,1,3.76,3.75v57.84a3.76,3.76,0,0,1-3.76,3.75h-91.2Z" transform="translate(-61.98 -371.84)"/><path class="cls-6" d="M262.47,384.69a3.22,3.22,0,0,1,3.22,3.21v57.84a3.22,3.22,0,0,1-3.22,3.21h-91.2a3.22,3.22,0,0,1-3.22-3.21V387.9a3.22,3.22,0,0,1,3.22-3.21h91.2m0-1.07h-91.2A4.3,4.3,0,0,0,167,387.9v57.84a4.3,4.3,0,0,0,4.29,4.28h91.2a4.3,4.3,0,0,0,4.29-4.28V387.9a4.3,4.3,0,0,0-4.29-4.28" transform="translate(-61.98 -371.84)"/><path class="cls-7" d="M112.51,17.4h84.77a1.87,1.87,0,0,1,1.87,1.87V70.69a1.88,1.88,0,0,1-1.88,1.88H112.51a1.87,1.87,0,0,1-1.87-1.87V19.28A1.87,1.87,0,0,1,112.51,17.4Z"/><path class="cls-6" d="M259.25,389.51a1.61,1.61,0,0,1,1.61,1.61v51.41a1.61,1.61,0,0,1-1.61,1.61H174.49a1.61,1.61,0,0,1-1.61-1.61V391.12a1.61,1.61,0,0,1,1.61-1.61h84.76m0-.54H174.49a2.15,2.15,0,0,0-2.15,2.14v51.41a2.15,2.15,0,0,0,2.15,2.14h84.76a2.15,2.15,0,0,0,2.15-2.14V391.12a2.15,2.15,0,0,0-2.15-2.14" transform="translate(-61.98 -371.84)"/><path class="cls-7" d="M171.27,555.52a3.76,3.76,0,0,1-3.76-3.75V493.94a3.76,3.76,0,0,1,3.76-3.75h91.2a3.76,3.76,0,0,1,3.76,3.75v57.84a3.76,3.76,0,0,1-3.76,3.75h-91.2Z" transform="translate(-61.98 -371.84)"/><path class="cls-6" d="M262.47,490.72a3.22,3.22,0,0,1,3.22,3.21v57.84a3.22,3.22,0,0,1-3.22,3.21h-91.2a3.22,3.22,0,0,1-3.22-3.21V493.94a3.22,3.22,0,0,1,3.22-3.21h91.2m0-1.07h-91.2a4.3,4.3,0,0,0-4.29,4.28v57.84a4.3,4.3,0,0,0,4.29,4.28h91.2a4.3,4.3,0,0,0,4.29-4.28V493.94a4.3,4.3,0,0,0-4.29-4.28" transform="translate(-61.98 -371.84)"/><path class="cls-7" d="M112.51,123.44h84.77a1.87,1.87,0,0,1,1.87,1.87v51.41a1.88,1.88,0,0,1-1.88,1.88H112.51a1.87,1.87,0,0,1-1.87-1.87V125.31A1.88,1.88,0,0,1,112.51,123.44Z"/><path class="cls-6" d="M259.25,495.54a1.61,1.61,0,0,1,1.61,1.61v51.41a1.61,1.61,0,0,1-1.61,1.61H174.49a1.61,1.61,0,0,1-1.61-1.61V497.15a1.61,1.61,0,0,1,1.61-1.61h84.76m0-.54H174.49a2.15,2.15,0,0,0-2.15,2.14v51.41a2.15,2.15,0,0,0,2.15,2.14h84.76a2.15,2.15,0,0,0,2.15-2.14V497.15a2.15,2.15,0,0,0-2.15-2.14" transform="translate(-61.98 -371.84)"/><path class="cls-6" d="M202.38,406.46l11.8-1.6v11.36l-11.8.07v-9.83Zm11.8,11.07V428.9l-11.8-1.62v-9.83Zm1.43-12.88,15.65-2.28v13.71l-15.65.12V404.64Zm15.65,13v13.65l-15.65-2.2,0-11.47Z" transform="translate(-61.98 -371.84)"/><path class="cls-11" d="M230.76,535.15l-0.16-.1a2.88,2.88,0,0,1-1.54-2.17l-0.15-.78a2.42,2.42,0,0,0,1.14,3.2,4.72,4.72,0,0,1,.92.48c0.56,0.4.57,0.8,0,1.16a7.5,7.5,0,0,1-1.56.72,10.05,10.05,0,0,0-3.42,1.91,3.88,3.88,0,0,1-1.15.69,1.73,1.73,0,0,1-2.46-1.69,7.31,7.31,0,0,1,.07-1,9.78,9.78,0,0,0-.15-3.7,3.38,3.38,0,0,1-.44-2,0.91,0.91,0,0,1,.91-0.53,1.06,1.06,0,0,1,.88.72c0.06,0.1.11,0.22,0.17,0.32a1.57,1.57,0,0,0,1.83.91,2.5,2.5,0,0,0,1.69-1,2.83,2.83,0,0,1,.64-0.74,1.79,1.79,0,0,0,.82-1.8,12.82,12.82,0,0,0-3.17-8.28c-2.17-2.47-3.51-5.73-3.13-8.49a5.2,5.2,0,0,0-6.47-6,4.81,4.81,0,0,0-3.92,3.22,16.79,16.79,0,0,0,0,5.7,5.87,5.87,0,0,1-1.41,4.92,6.53,6.53,0,0,0-.73,1c-0.58,1-1.18,2-1.68,3-0.57,1.17-1,2.4-1.58,3.6a3.28,3.28,0,0,0-.2,2.43,1.58,1.58,0,0,1,2.11.49,3.94,3.94,0,0,1,.5.54c1.05,1.52,2.13,3,3.11,4.58a6.39,6.39,0,0,1,.73,1.94,1.56,1.56,0,0,1-1.33,2,4.35,4.35,0,0,1-1.69-.08c-1.26-.29-2.49-0.68-3.75-1-0.86-.22-1.73-0.36-2.59-0.56-0.49-.12-0.83-0.45-0.54-0.94a2.83,2.83,0,0,0,0-3.13,0.4,0.4,0,0,1,0-.12,0.63,0.63,0,0,1,.71-0.91,6.92,6.92,0,0,0,1.22-.08,1.48,1.48,0,0,0,1.2-1.83,2.27,2.27,0,0,1-2.36,1.5,3.79,3.79,0,0,0-.49.07,0.71,0.71,0,0,0-.67.86,2.07,2.07,0,0,0,.06.49,4,4,0,0,1-.11,2.87c-0.41,1-.13,1.43.89,1.74l0.54,0.14c2,0.54,4.09,1,6.12,1.63a3.06,3.06,0,0,0,2.78-.48,4.63,4.63,0,0,1,2.06-.87c1.82-.15,3.65-0.11,5.48-0.12a1.47,1.47,0,0,1,1.31.76,2.89,2.89,0,0,0,3.81.55,17.25,17.25,0,0,1,4.51-3,5.44,5.44,0,0,0,.75-0.42c1.26-.84,1.24-1.54-0.07-2.32m-9.61-18c0.1-.31.38,0.42,0.82,0.39s0.72,0.61.38,0.84a0.57,0.57,0,0,1-.57,0,1.18,1.18,0,0,1-.64-1.27m-1-5.22c0.07,0.2-.2-0.06-0.42-0.33a1.36,1.36,0,0,0-.65-0.37c-0.3,0-.46-0.23.07-0.17a1,1,0,0,1,1,.88m-1.92-3.17a0.21,0.21,0,0,1,.27-0.15,5.1,5.1,0,0,1,.65.35,3.49,3.49,0,0,0-.9.5,1.9,1.9,0,0,1,0-.7m-4.07,2.43c0.34-.2.6-0.07,1,0.44,0.09,0.11-.16.14-0.34,0a1,1,0,0,0-.71-0.23c-0.28.08-.43,0.09,0-0.18M222,535c-0.05,1.36-.22,2.71-0.35,4.1-0.64-.1-0.66-0.38-0.56-0.74a18.08,18.08,0,0,0,.48-1.84,3,3,0,0,0-.14-1.24c-2.2,2.73-4.88,2.91-7.89,1.56,0.35,0.89,1.14,1.56.34,2.49a4.85,4.85,0,0,0-1.31-3.09l0.42-.18a1.13,1.13,0,0,0,.36-1.88c-0.41-.4-0.88-0.74-1.32-1.11-1-.85-2-1.69-3-2.57a3.19,3.19,0,0,1-.49-3.66,12.2,12.2,0,0,0,0,1.87,3,3,0,0,0,.56,1.2c0.25,0.35.56,0.25,0.62-.18s0-.94,0-1.41a9.74,9.74,0,0,1,2.09-5.41,2.55,2.55,0,0,1,.26-2.22c0.36-.74.66-1.44,1-2.26l0.69,0.88c0.56,0.73,1.19.81,2.26,0.28,0.78-.38,1.46-1,2.39-1.51a2,2,0,0,0,.65-0.45c0.12-.18,0-0.24-0.15-0.15-0.31.13-.79,0.39-1,0.51a7.88,7.88,0,0,1-1.76.84c-1.95.63-2.35,0.06-3.18-1.21,1.11,1.44,2.52,1.15,6-.73,0.11-.06.38-0.3,0.25-0.4a0.51,0.51,0,0,0-.43.09,9.1,9.1,0,0,1-4,1.54,1.62,1.62,0,0,1-1.52-.72,1.55,1.55,0,0,1-.57-1.19,1.74,1.74,0,0,1,.47-0.5c0.23-.23.74-0.59,1.07-0.89a1.19,1.19,0,0,0,.16-1.5,0.63,0.63,0,0,0-1.19-.15c-0.29.64,0.17,1.62,0.74,1.54-0.47.5-.65,0.59-0.86,0.25a2.82,2.82,0,0,1,.11-2.71,0.81,0.81,0,0,1,1.43.08,4.71,4.71,0,0,1,.42,1.51c0.05,0.34.09,0.56,0.5,0.5a3,3,0,0,1,1.15.13,6.45,6.45,0,0,1,0-1.59,1.43,1.43,0,0,1,1.49-1.3,1.76,1.76,0,0,1,1.62,1.28,3.58,3.58,0,0,1,.11,1.82,0.58,0.58,0,0,1-.57.48c-0.65-.07-0.87-0.16-0.37-0.33a0.82,0.82,0,0,0,.31-0.84,1,1,0,0,0-.73-1.06,0.83,0.83,0,0,0-.9.37,1.52,1.52,0,0,0-.22,1.38,2.34,2.34,0,0,0,1.22.72c1.32,0.55,1.33.53,1.09,1.89a2.46,2.46,0,0,0,.48,1.85,9,9,0,0,1,.9,1.73,14.25,14.25,0,0,0,1.13,2.48,9.78,9.78,0,0,1,1.05,4.87c0,0.14,0,.29,0,0.43a0.81,0.81,0,0,0,.61.93,1.06,1.06,0,0,0,1.17-.79,6.3,6.3,0,0,0-.09-3.29,8.23,8.23,0,0,0-1.68-3.23,4.29,4.29,0,0,1,1.83,2.59,7,7,0,0,1,.25,4.29c0,0.16.14,0.25,0.35,0.4s0.33,0.21.53,0.34a14.63,14.63,0,0,0-1.84-.13,1.26,1.26,0,0,0-1.25.93,0.48,0.48,0,0,1-.32.26c-0.66.1-1.32,0.11-1.46,0.86-0.22,1.13.57,2.23,0.53,3.2m-8.09-21.45c-0.1-.21-0.16-0.29,0-0.32s0.3,0.25.28,0.42-0.18.11-.28-0.09m4.68,0.07c-0.1-.2-0.16-0.29,0-0.32s0.3,0.25.28,0.42-0.18.11-.28-0.09" transform="translate(-61.98 -371.84)"/></g><g class="cls-2"><text class="cls-12" transform="translate(568.4 19.17)">Q<tspan x="8.99" y="0">t</tspan><tspan x="12" y="0"> </tspan><tspan x="15" y="0">/</tspan><tspan x="18.01" y="0"> </tspan><tspan x="21.01" y="0">OS</tspan><tspan x="37" y="0">X</tspan></text><text class="cls-12" transform="translate(568.4 47.17)">Co<tspan x="14" y="0">c</tspan><tspan x="19.01" y="0">oa</tspan></text><text class="cls-12" transform="translate(568.4 62.17)">M<tspan x="10.99" y="0">ac</tspan><tspan x="21" y="0"> </tspan></text><text class="cls-12" transform="translate(592.4 62.17)">K<tspan x="8.99" y="0">e</tspan><tspan x="13.99" y="0">rn</tspan><tspan x="23.99" y="0">e</tspan><tspan x="28.99" y="0">l</tspan></text><text class="cls-12" transform="translate(568.4 76.17)">M<tspan x="10.99" y="0">ac</tspan><tspan x="21" y="0">H</tspan><tspan x="29.99" y="0">W</tspan></text><text class="cls-12" transform="translate(568.4 125.88)">Q<tspan x="8.99" y="0">t</tspan><tspan x="12" y="0"> </tspan><tspan x="15" y="0">/</tspan><tspan x="18.01" y="0"> </tspan><tspan x="21.01" y="0">A</tspan><tspan x="30" y="0">ndro</tspan><tspan x="52" y="0">i</tspan><tspan x="55.01" y="0">d</tspan></text><text class="cls-12" transform="translate(568.4 153.88)">A<tspan x="8.99" y="0">ndro</tspan><tspan x="30.99" y="0">i</tspan><tspan x="34" y="0">d </tspan></text><text class="cls-12" transform="translate(611.4 153.88)">ND<tspan x="17.98" y="0">K</tspan></text><text class="cls-12" transform="translate(568.4 168.88)">A<tspan x="8.99" y="0">ndro</tspan><tspan x="30.99" y="0">i</tspan><tspan x="34" y="0">d </tspan></text><text class="cls-12" transform="translate(611.4 168.88)">K<tspan x="8.99" y="0">e</tspan><tspan x="13.99" y="0">rn</tspan><tspan x="23.99" y="0">el</tspan><tspan x="32" y="0"> </tspan></text><text class="cls-12" transform="translate(568.4 182.88)">A<tspan x="8.99" y="0">ndro</tspan><tspan x="30.99" y="0">i</tspan><tspan x="34" y="0">d </tspan><tspan x="43" y="0">H</tspan><tspan x="51.99" y="0">W</tspan></text><text class="cls-12" transform="translate(28.77 18.82)">Q<tspan x="8.99" y="0">t</tspan><tspan x="12" y="0"> </tspan><tspan x="15" y="0">/</tspan><tspan x="18.01" y="0"> </tspan><tspan x="21.01" y="0">Wi</tspan><tspan x="35.02" y="0">ndo</tspan><tspan x="53.02" y="0">w</tspan><tspan x="62.01" y="0">s</tspan></text><text class="cls-12" transform="translate(24.77 46.82)">Wi<tspan x="14.01" y="0">ndo</tspan><tspan x="32.01" y="0">ws</tspan><tspan x="46" y="0"> </tspan></text><text class="cls-12" transform="translate(73.77 46.82)">GD<tspan x="17.98" y="0">I</tspan></text><text class="cls-12" transform="translate(14.77 61.82)">Wi<tspan x="14.01" y="0">ndo</tspan><tspan x="32.01" y="0">ws</tspan><tspan x="46" y="0"> </tspan></text><text class="cls-12" transform="translate(63.77 61.82)">K<tspan x="8.99" y="0">e</tspan><tspan x="13.99" y="0">rn</tspan><tspan x="23.99" y="0">e</tspan><tspan x="28.99" y="0">l</tspan></text><text class="cls-12" transform="translate(57.77 75.82)">P<tspan x="7" y="0">C </tspan><tspan x="18" y="0">H</tspan><tspan x="26.99" y="0">W</tspan></text><text class="cls-13" transform="translate(263.44 16.56)">Q<tspan x="8.99" y="0">t</tspan><tspan x="12" y="0"> </tspan></text><text class="cls-13" transform="translate(277.44 16.56)">A<tspan x="8.99" y="0">pp</tspan><tspan x="20.99" y="0">licati</tspan><tspan x="43.03" y="0">on</tspan></text><rect class="cls-6" x="257" y="142" width="152" height="49" rx="3.62" ry="3.62"/><text class="cls-14" transform="translate(268.14 157.6)">Q<tspan x="7" y="0">t</tspan><tspan x="10" y="0">G</tspan><tspan x="17" y="0">ui</tspan></text><text class="cls-14" transform="translate(268.14 169.6)">Q<tspan x="7" y="0">t</tspan><tspan x="10" y="0">C</tspan><tspan x="17" y="0">o</tspan><tspan x="22" y="0">r</tspan><tspan x="25" y="0">e</tspan></text><text class="cls-14" transform="translate(268.14 181.6)">Q<tspan x="7" y="0">t</tspan><tspan x="10" y="0">N</tspan><tspan x="17" y="0">e</tspan><tspan x="21.01" y="0">t</tspan><tspan x="24.01" y="0">w</tspan><tspan x="31.01" y="0">o</tspan><tspan x="36.01" y="0">r</tspan><tspan x="39.01" y="0">k</tspan></text><text class="cls-14" transform="translate(336.09 157.6)">Q<tspan x="7" y="0">t</tspan><tspan x="10" y="0">S</tspan><tspan x="15.99" y="0">ql</tspan></text><text class="cls-14" transform="translate(336.09 169.6)">Q<tspan x="7" y="0">t</tspan><tspan x="10" y="0">M</tspan><tspan x="18.99" y="0">u</tspan><tspan x="23.99" y="0">ltim</tspan><tspan x="40.98" y="0">e</tspan><tspan x="44.99" y="0">d</tspan><tspan x="49.99" y="0">i</tspan><tspan x="52.99" y="0">a</tspan></text><text class="cls-14" transform="translate(336.09 181.6)">e<tspan x="4.01" y="0">t</tspan><tspan x="7.01" y="0">c</tspan><tspan x="11.02" y="0">.</tspan><tspan x="14.02" y="0"> </tspan></text></g></svg>