<svg id="Layer_1" data-name="Layer 1" xmlns="http://www.w3.org/2000/svg" viewBox="0 0 455.18 358.59"><defs><style>.cls-1{fill:#fcf7bc;}.cls-2{fill:none;stroke:#7f1416;stroke-linejoin:round;stroke-width:1px;}.cls-3,.cls-4{font-size:11.02px;font-family:Tahoma;}.cls-3{font-weight:700;}.cls-5{letter-spacing:-1px;}.cls-6{fill:#fff;fill-rule:evenodd;}</style></defs><title>Qt3</title><rect class="cls-1" x="188.78" y="60.6" width="84.11" height="171.29"/><rect class="cls-2" x="188.78" y="60.6" width="84.11" height="171.29"/><text class="cls-3" transform="translate(208.8 75.61)">QO<tspan x="16.05" y="0">b</tspan><tspan x="23.05" y="0">j</tspan><tspan x="27.05" y="0">e</tspan><tspan x="34.06" y="0">c</tspan><tspan x="40.03" y="0">t</tspan></text><text class="cls-4" transform="translate(193.78 97.67)">+<tspan x="8.02" y="0">d</tspan><tspan x="14.02" y="0">_</tspan><tspan x="20.04" y="0">p</tspan><tspan x="26.02" y="0">t</tspan><tspan x="30" y="0">r</tspan></text><line class="cls-2" x1="188.78" y1="82.63" x2="273.89" y2="82.63"/><text class="cls-4" transform="translate(193.78 119.7)">+<tspan x="8.02" y="0">e</tspan><tspan x="13.99" y="0">v</tspan><tspan x="19.97" y="0">e</tspan><tspan x="25.94" y="0">n</tspan><tspan x="31.95" y="0">t</tspan><tspan x="35.93" y="0">(</tspan><tspan x="39.94" y="0">)</tspan></text><text class="cls-4" transform="translate(193.78 132.72)">+<tspan x="8.02" y="0">e</tspan><tspan x="13.99" y="0">v</tspan><tspan x="19.97" y="0">e</tspan><tspan x="25.94" y="0">n</tspan><tspan x="31.95" y="0">t</tspan><tspan x="35.93" y="0">F</tspan><tspan x="41.91" y="0">il</tspan><tspan x="45.91" y="0">t</tspan><tspan x="49.89" y="0">e</tspan><tspan x="55.87" y="0">r</tspan><tspan x="59.84" y="0">(</tspan><tspan x="63.88" y="0">)</tspan></text><text class="cls-4" transform="translate(193.78 145.73)">+<tspan x="8.02" y="0">t</tspan><tspan x="12" y="0">h</tspan><tspan x="18" y="0">r</tspan><tspan x="21.97" y="0">e</tspan><tspan x="27.98" y="0">a</tspan><tspan x="33.97" y="0">d</tspan><tspan x="39.97" y="0">(</tspan><tspan x="43.98" y="0">)</tspan></text><text class="cls-4" transform="translate(193.78 158.77)">+<tspan x="8.02" y="0">s</tspan><tspan x="12.99" y="0">t</tspan><tspan x="16.97" y="0">a</tspan><tspan x="22.96" y="0">r</tspan><tspan x="26.93" y="0">t</tspan><tspan x="30.94" y="0">T</tspan><tspan x="36.95" y="0">i</tspan><tspan class="cls-5" x="38.95" y="0">m</tspan><tspan x="46.98" y="0">e</tspan><tspan x="52.96" y="0">r</tspan><tspan x="56.93" y="0">(</tspan><tspan x="60.97" y="0">)</tspan></text><text class="cls-4" transform="translate(193.78 171.79)">+<tspan x="8.02" y="0">c</tspan><tspan x="13.01" y="0">h</tspan><tspan x="19.02" y="0">il</tspan><tspan x="23.02" y="0">d</tspan><tspan x="29.02" y="0">r</tspan><tspan x="32.99" y="0">e</tspan><tspan x="39" y="0">n</tspan><tspan x="45" y="0">(</tspan><tspan x="49.01" y="0">)</tspan></text><text class="cls-4" transform="translate(193.78 184.8)">+<tspan x="8.02" y="0">f</tspan><tspan x="12" y="0">i</tspan><tspan x="14" y="0">n</tspan><tspan x="20" y="0">d</tspan><tspan x="26" y="0">C</tspan><tspan x="33.01" y="0">h</tspan><tspan x="39.01" y="0">il</tspan><tspan x="43.01" y="0">d</tspan><tspan x="49.01" y="0">(</tspan><tspan x="53.02" y="0">)</tspan></text><text class="cls-4" transform="translate(193.78 197.82)">+<tspan x="8.02" y="0">c</tspan><tspan x="13.01" y="0">o</tspan><tspan x="19" y="0">n</tspan><tspan x="25.01" y="0">n</tspan><tspan x="31.01" y="0">e</tspan><tspan x="36.99" y="0">c</tspan><tspan x="42" y="0">t</tspan><tspan x="45.98" y="0">(</tspan><tspan x="49.99" y="0">)</tspan></text><text class="cls-4" transform="translate(193.78 210.86)">+<tspan x="8.02" y="0">p</tspan><tspan x="14.02" y="0">a</tspan><tspan x="20" y="0">r</tspan><tspan x="23.97" y="0">e</tspan><tspan x="29.98" y="0">n</tspan><tspan x="35.99" y="0">t</tspan><tspan x="39.97" y="0">(</tspan><tspan x="43.98" y="0">)</tspan></text><text class="cls-4" transform="translate(193.78 223.87)">+<tspan x="8.02" y="0">p</tspan><tspan x="14.02" y="0">r</tspan><tspan x="17.99" y="0">o</tspan><tspan x="24.01" y="0">p</tspan><tspan x="30.01" y="0">e</tspan><tspan x="35.99" y="0">r</tspan><tspan x="39.96" y="0">t</tspan><tspan x="43.98" y="0">y</tspan><tspan x="49.95" y="0">(</tspan><tspan x="53.96" y="0">)</tspan></text><line class="cls-2" x1="188.78" y1="104.67" x2="273.89" y2="104.67"/><rect class="cls-1" x="100.65" y="4.49" width="82.11" height="41.07"/><rect class="cls-2" x="100.65" y="4.49" width="82.11" height="41.07"/><text class="cls-3" transform="translate(105.65 19.53)">Q<tspan x="8.02" y="0">M</tspan><tspan x="18.02" y="0">e</tspan><tspan x="25.02" y="0">ta</tspan><tspan x="37.02" y="0">O</tspan><tspan x="45.04" y="0">b</tspan><tspan x="52.05" y="0">j</tspan><tspan x="56.04" y="0">e</tspan><tspan x="63.05" y="0">c</tspan><tspan x="69.03" y="0">t</tspan></text><line class="cls-2" x1="100.65" y1="26.55" x2="183.76" y2="26.55"/><line class="cls-2" x1="100.65" y1="35.55" x2="183.76" y2="35.55"/><rect class="cls-1" x="0.5" y="92.65" width="123.16" height="119.21"/><rect class="cls-2" x="0.5" y="92.65" width="123.16" height="119.21"/><text class="cls-3" transform="translate(5.5 107.69)">Q<tspan x="8.02" y="0">M</tspan><tspan x="18.02" y="0">e</tspan><tspan x="25.02" y="0">ta</tspan><tspan x="37.02" y="0">O</tspan><tspan x="45.04" y="0">b</tspan><tspan x="52.05" y="0">j</tspan><tspan x="56.04" y="0">e</tspan><tspan x="63.05" y="0">c</tspan><tspan x="69.03" y="0">t</tspan><tspan x="74.01" y="0">P</tspan><tspan x="81.04" y="0">r</tspan><tspan x="86.02" y="0">i</tspan><tspan x="89.03" y="0">v</tspan><tspan x="96.03" y="0">at</tspan><tspan x="108.02" y="0">e</tspan></text><text class="cls-4" transform="translate(5.5 129.72)">+<tspan x="8.02" y="0">c</tspan><tspan x="13.01" y="0">l</tspan><tspan x="15.01" y="0">a</tspan><tspan x="21" y="0">ss</tspan><tspan x="30.97" y="0">N</tspan><tspan x="37.99" y="0">a</tspan><tspan class="cls-5" x="43.97" y="0">m</tspan><tspan x="52.01" y="0">e</tspan></text><text class="cls-4" transform="translate(5.5 142.74)">+<tspan class="cls-5" x="8.02" y="0">m</tspan><tspan x="16.05" y="0">e</tspan><tspan x="22.03" y="0">t</tspan><tspan x="26.01" y="0">h</tspan><tspan x="32.01" y="0">o</tspan><tspan x="37.99" y="0">d</tspan><tspan x="44.01" y="0">s</tspan></text><text class="cls-4" transform="translate(5.5 155.75)">+<tspan x="8.02" y="0">p</tspan><tspan x="14.02" y="0">r</tspan><tspan x="17.99" y="0">o</tspan><tspan x="24.01" y="0">p</tspan><tspan x="30.01" y="0">e</tspan><tspan x="35.99" y="0">r</tspan><tspan x="39.96" y="0">t</tspan><tspan x="43.98" y="0">i</tspan><tspan x="45.98" y="0">e</tspan><tspan x="51.95" y="0">s</tspan></text><text class="cls-4" transform="translate(5.5 168.79)">+<tspan x="8.02" y="0">e</tspan><tspan x="13.99" y="0">nu</tspan><tspan class="cls-5" x="26" y="0">m</tspan><tspan x="34.03" y="0">e</tspan><tspan x="40.01" y="0">r</tspan><tspan x="43.98" y="0">a</tspan><tspan x="49.99" y="0">t</tspan><tspan x="53.98" y="0">i</tspan><tspan x="55.98" y="0">o</tspan><tspan x="61.96" y="0">n</tspan><tspan x="67.97" y="0">s</tspan></text><text class="cls-4" transform="translate(5.5 181.81)">+<tspan x="8.02" y="0">c</tspan><tspan x="13.01" y="0">o</tspan><tspan x="19" y="0">n</tspan><tspan x="25.01" y="0">s</tspan><tspan x="29.99" y="0">t</tspan><tspan x="33.98" y="0">r</tspan><tspan x="37.95" y="0">u</tspan><tspan x="43.98" y="0">c</tspan><tspan x="48.99" y="0">t</tspan><tspan x="52.98" y="0">o</tspan><tspan x="58.96" y="0">r</tspan><tspan x="62.95" y="0">s</tspan></text><text class="cls-4" transform="translate(5.5 194.82)">+<tspan x="8.02" y="0">s</tspan><tspan x="12.99" y="0">i</tspan><tspan x="14.99" y="0">g</tspan><tspan x="20.99" y="0">n</tspan><tspan x="27" y="0">a</tspan><tspan x="32.98" y="0">l</tspan><tspan x="34.98" y="0">s</tspan></text><line class="cls-2" x1="0.5" y1="114.68" x2="124.69" y2="114.68"/><line class="cls-2" x1="0.5" y1="201.84" x2="124.69" y2="201.84"/><rect class="cls-1" x="357.02" y="112.69" width="97.15" height="93.15"/><rect class="cls-2" x="357.02" y="112.69" width="97.15" height="93.15"/><text class="cls-3" transform="translate(363.05 127.72)">QO<tspan x="16.05" y="0">b</tspan><tspan x="23.05" y="0">j</tspan><tspan x="27.05" y="0">e</tspan><tspan x="34.06" y="0">c</tspan><tspan x="40.03" y="0">t</tspan><tspan x="45.02" y="0">P</tspan><tspan x="52.04" y="0">r</tspan><tspan x="57.03" y="0">i</tspan><tspan x="60.04" y="0">v</tspan><tspan x="67.04" y="0">at</tspan><tspan x="79.03" y="0">e</tspan></text><line class="cls-2" x1="357.02" y1="134.72" x2="455.18" y2="134.72"/><text class="cls-4" transform="translate(362.05 158.77)">+<tspan x="8.02" y="0">c</tspan><tspan x="13.01" y="0">o</tspan><tspan x="19" y="0">n</tspan><tspan x="25.01" y="0">n</tspan><tspan x="31.01" y="0">e</tspan><tspan x="36.99" y="0">c</tspan><tspan x="42" y="0">t</tspan><tspan x="45.98" y="0">i</tspan><tspan x="47.98" y="0">o</tspan><tspan x="53.96" y="0">n</tspan><tspan x="59.98" y="0">L</tspan><tspan x="64.99" y="0">i</tspan><tspan x="66.99" y="0">s</tspan><tspan x="71.97" y="0">t</tspan><tspan x="75.95" y="0">s</tspan><tspan x="80.94" y="0">(</tspan><tspan x="84.95" y="0">)</tspan></text><text class="cls-4" transform="translate(362.05 171.79)">+<tspan x="8.02" y="0">t</tspan><tspan x="12" y="0">h</tspan><tspan x="18" y="0">r</tspan><tspan x="21.97" y="0">e</tspan><tspan x="27.98" y="0">a</tspan><tspan x="33.97" y="0">d</tspan><tspan x="39.97" y="0">D</tspan><tspan x="46.99" y="0">a</tspan><tspan x="52.97" y="0">t</tspan><tspan x="56.96" y="0">a</tspan><tspan x="62.94" y="0">(</tspan><tspan x="66.95" y="0">)</tspan></text><text class="cls-4" transform="translate(362.05 184.8)">+<tspan x="8.02" y="0">e</tspan><tspan x="13.99" y="0">v</tspan><tspan x="19.97" y="0">e</tspan><tspan x="25.94" y="0">n</tspan><tspan x="31.95" y="0">t</tspan><tspan x="35.93" y="0">F</tspan><tspan x="41.91" y="0">il</tspan><tspan x="45.91" y="0">t</tspan><tspan x="49.89" y="0">e</tspan><tspan x="55.87" y="0">r</tspan><tspan x="59.84" y="0">s</tspan><tspan x="64.85" y="0">(</tspan><tspan x="68.86" y="0">)</tspan></text><line class="cls-2" x1="357.02" y1="143.74" x2="455.18" y2="143.74"/><rect class="cls-1" x="188.78" y="264.94" width="84.11" height="93.15"/><rect class="cls-2" x="188.78" y="264.94" width="84.11" height="93.15"/><text class="cls-3" transform="translate(198.78 279.98)">Q<tspan x="8.02" y="0">M</tspan><tspan x="18.02" y="0">e</tspan><tspan x="25.02" y="0">ta</tspan><tspan x="37.02" y="0">T</tspan><tspan x="44.02" y="0">y</tspan><tspan x="51.02" y="0">p</tspan><tspan x="58.02" y="0">e</tspan></text><text class="cls-4" transform="translate(193.78 302.01)">+<tspan x="8.02" y="0">T</tspan><tspan x="14.02" y="0">y</tspan><tspan x="20" y="0">p</tspan><tspan x="26" y="0">e</tspan></text><line class="cls-2" x1="188.78" y1="286.97" x2="273.89" y2="286.97"/><text class="cls-4" transform="translate(193.78 324.04)">+<tspan x="8.02" y="0">c</tspan><tspan x="13.01" y="0">o</tspan><tspan x="19" y="0">n</tspan><tspan x="25.01" y="0">s</tspan><tspan x="29.99" y="0">t</tspan><tspan x="33.98" y="0">r</tspan><tspan x="37.95" y="0">u</tspan><tspan x="43.98" y="0">c</tspan><tspan x="48.99" y="0">t</tspan><tspan x="52.98" y="0">(</tspan><tspan x="56.98" y="0">)</tspan></text><text class="cls-4" transform="translate(193.78 337.06)">+r<tspan x="11.99" y="0">e</tspan><tspan x="18" y="0">g</tspan><tspan x="24" y="0">i</tspan><tspan x="26" y="0">s</tspan><tspan x="30.99" y="0">t</tspan><tspan x="34.97" y="0">e</tspan><tspan x="40.95" y="0">r</tspan><tspan x="44.92" y="0">(</tspan><tspan x="48.96" y="0">)</tspan></text><text class="cls-4" transform="translate(193.78 350.1)">+<tspan x="8.02" y="0">d</tspan><tspan x="14.02" y="0">e</tspan><tspan x="20" y="0">s</tspan><tspan x="24.98" y="0">t</tspan><tspan x="28.96" y="0">r</tspan><tspan x="32.94" y="0">o</tspan><tspan x="38.95" y="0">y</tspan><tspan x="44.93" y="0">(</tspan><tspan x="48.94" y="0">)</tspan></text><path class="cls-2" d="M225.26,289.33l32.06,43.06m0,219.36h85.11" transform="translate(-68.54 -242.74)"/><polygon class="cls-6" points="179.76 84.63 188.78 89.65 186.78 79.64 175.76 72.62 179.76 84.63"/><polygon class="cls-2" points="179.76 84.63 188.78 89.65 186.78 79.64 175.76 72.62 179.76 84.63"/><line class="cls-2" x1="99.65" y1="92.65" x2="128.69" y2="46.59"/><polygon class="cls-6" points="127.69 56.6 128.69 46.59 120.67 52.58 117.67 64.6 127.69 56.6"/><polygon class="cls-2" points="127.69 56.6 128.69 46.59 120.67 52.58 117.67 64.6 127.69 56.6"/><polyline class="cls-2" points="357.02 166.77 312.97 172.79 273.89 160.77"/><polygon class="cls-6" points="283.91 159.77 273.89 160.77 281.91 167.79 294.93 166.77 283.91 159.77"/><polygon class="cls-2" points="283.91 159.77 273.89 160.77 281.91 167.79 294.93 166.77 283.91 159.77"/><text class="cls-4" transform="translate(280.91 183.8)">d</text><polyline class="cls-2" points="273.89 134.72 312.97 124.7 357.02 141.74"/><polygon class="cls-6" points="347 141.74 357.02 141.74 350.03 134.72 337.01 134.72 347 141.74"/><polygon class="cls-2" points="347 141.74 357.02 141.74 350.03 134.72 337.01 134.72 347 141.74"/><text class="cls-4" transform="translate(339.01 126.7)">q</text><rect class="cls-1" x="365.05" y="0.5" width="80.11" height="67.12"/><rect class="cls-2" x="365.05" y="0.5" width="80.11" height="67.12"/><text class="cls-3" transform="translate(370.04 15.51)">QO<tspan x="16.05" y="0">b</tspan><tspan x="23.05" y="0">j</tspan><tspan x="27.05" y="0">e</tspan><tspan x="34.06" y="0">c</tspan><tspan x="40.03" y="0">t</tspan><tspan x="45.02" y="0">D</tspan><tspan x="53.05" y="0">at</tspan><tspan x="65.04" y="0">a</tspan></text><text class="cls-4" transform="translate(370.04 37.57)">+<tspan x="8.02" y="0">p</tspan><tspan x="14.02" y="0">a</tspan><tspan x="20" y="0">r</tspan><tspan x="23.97" y="0">e</tspan><tspan x="29.98" y="0">n</tspan><tspan x="35.99" y="0">t</tspan></text><text class="cls-4" transform="translate(370.04 50.58)">+<tspan x="8.02" y="0">c</tspan><tspan x="13.01" y="0">h</tspan><tspan x="19.02" y="0">il</tspan><tspan x="23.02" y="0">d</tspan><tspan x="29.02" y="0">r</tspan><tspan x="32.99" y="0">e</tspan><tspan x="39" y="0">n</tspan></text><line class="cls-2" x1="365.05" y1="22.53" x2="446.16" y2="22.53"/><path class="cls-2" d="M474.64,355.42l-1-44.06m-40.05-11H514.7" transform="translate(-68.54 -242.74)"/><polygon class="cls-6" points="413.12 88.65 405.1 68.62 398.08 88.65 413.12 88.65"/><polygon class="cls-2" points="413.12 88.65 405.1 68.62 398.08 88.65 413.12 88.65"/><polyline class="cls-2" points="365.05 42.57 308.95 52.58 273.89 94.65"/><polygon class="cls-6" points="276.91 84.63 273.89 94.65 282.91 89.65 287.93 78.64 276.91 84.63"/><polygon class="cls-2" points="276.91 84.63 273.89 94.65 282.91 89.65 287.93 78.64 276.91 84.63"/><text class="cls-4" transform="translate(295.93 82.63)">d<tspan x="6" y="0">_</tspan><tspan x="12.02" y="0">p</tspan><tspan x="18" y="0">t</tspan><tspan x="21.98" y="0">r</tspan></text></svg>